# xmcd CD database file
#
# Track frame offsets:
#	150
#	25983
#	43597
#	69609
#	97881
#	124610
#	146723
#	170789
#	196218
#	225192
#	268555
#	304644
#
# Disc length: 4314 seconds
#
# Revision: 0
# Processed by: cddbd v1.5.2PL0 Copyright (c) Steve Scherf et al.
# Submitted via: CDex 1.50
#
DISCID=9d10d80c
DTITLE=Oscar PETERSON - Live
DYEAR=2007
DGENRE=Jazz
TTITLE0=Tenderly
TTITLE1=Seven Come Eleven
TTITLE2=Swinging Till The Girls Come Home
TTITLE3=Failling in love with Love
TTITLE4=How About You
TTITLE5=Flamingo
TTITLE6=Swinging On A Star
TTITLE7=Noreen's Nocturne
TTITLE8=Gipsy In My Soul
TTITLE9=How High The Moon
TTITLE10=Love You Madly
TTITLE11=52  Street Theme
EXTD=YEAR: 2007
EXTT0=
EXTT1=
EXTT2=
EXTT3=
EXTT4=
EXTT5=
EXTT6=
EXTT7=
EXTT8=
EXTT9=
EXTT10=
EXTT11=
PLAYORDER=
